<svg id="Слой_1" data-name="Слой 1" xmlns="http://www.w3.org/2000/svg" viewBox="0 0 90 90"><defs><style>.cls-1{fill:#4f4400;}.cls-2{fill:#ffe600;}.cls-3{fill:#998600;}</style></defs><title>logo</title><circle class="cls-1" cx="45" cy="45" r="45"/><circle class="cls-2" cx="45" cy="45" r="35.08"/><path class="cls-3" d="M340.42,332.56c0.86-1.18-.12,2.66-1.93,7.47-5.1,13.56-16.72,21-32.49,21-23.15,0-39.24-20.23-34.24-42.92,0.08-.35,2-6.24,2-6.24C284.8,333.31,331.91,344.22,340.42,332.56Z" transform="translate(-261 -280.74)"/><path class="cls-3" d="M272.24,316.86" transform="translate(-261 -280.74)"/><circle class="cls-1" cx="36.13" cy="27.63" r="9.25"/><circle class="cls-1" cx="288" cy="353.4" r="7.17" transform="translate(-400.56 230.87) rotate(-71.13)"/><circle class="cls-1" cx="307.64" cy="347.54" r="3.92" transform="translate(-364.55 -148.5) rotate(-20.85)"/><circle class="cls-1" cx="328.86" cy="351.35" r="8.55" transform="matrix(0.93, -0.36, 0.36, 0.93, -364.51, -140.7)"/><circle class="cls-1" cx="280.32" cy="332.59" r="2.27" transform="translate(-361.02 -159.2) rotate(-20.85)"/><circle class="cls-1" cx="60.08" cy="31.9" r="7.55"/><circle class="cls-1" cx="68.35" cy="48.67" r="2.55"/></svg>